# xmcd
#
# Track frame offsets:
#	150
#	14550
#	29389
#	42641
#	57924
#	70854
#	83654
#	97226
#	110125
#	125835
#	139685
#	153971
#	167640
#	181823
#	195363
#	209886
#	222818
#	235519
#	250354
#	263018
#	277880
#	289091
#	300582
#	314832
#	327689
#
# Disc length: 4548 seconds
#
# Revision: 0
# Processed by: cddbd v1.5.1PL0 Copyright (c) Steve Scherf et al.
# Submitted via: dBpowerAMP V4.0
#
DISCID=7e11c219
DTITLE=Memphis Minnie - Me And My Chauffeur
DYEAR=2003
DGENRE=Blues
TTITLE0=Where The Levees Breaks
TTITLE1=Bumble Bee
TTITLE2=Georgie Skin
TTITLE3=Memphis Minnie Ittis Blues
TTITLE4=Plymouth Rock N Roll
TTITLE5=What S The Matter With The Mill ?
TTITLE6=New Dirty Dozen
TTITLE7=Frankie Jean  That Trottin Fool
TTITLE8=Crazy Cryin Blues
TTITLE9=Pickin The Blues
TTITLE10=Let S Go To Town
TTITLE11=Where Is My Good Man
TTITLE12=Joliet Bound
TTITLE13=My Butcher Man
TTITLE14=Ain T No Use To Trying To Tell On Me
TTITLE15=Drunken Barrel Blues
TTITLE16=Keep It To Yourself
TTITLE17=Chickasaw Train Blues
TTITLE18=Dirty Mother For You
TTITLE19=Reachin Pete
TTITLE20=I M Waiting On You
TTITLE21=Keep On Goin
TTITLE22=He S In The Ring 
TTITLE23=Joe Louis Strut
TTITLE24=Ice Man Come On Up
EXTD=
EXTT0=
EXTT1=
EXTT2=
EXTT3=
EXTT4=
EXTT5=
EXTT6=
EXTT7=
EXTT8=
EXTT9=
EXTT10=
EXTT11=
EXTT12=
EXTT13=
EXTT14=
EXTT15=
EXTT16=
EXTT17=
EXTT18=
EXTT19=
EXTT20=
EXTT21=
EXTT22=
EXTT23=
EXTT24=
PLAYORDER=
